PathFileType	4	(X/Y/Z)	C:/Users/opensim2020/Desktop/walking_exp_matlab/subject01/subject01_trc/subject01_walking17_run_cyclic.trc	
DataRate	CameraRate	NumFrames	NumMarkers	Units	OrigDataRate	OrigDataStartFrame	OrigNumFrames	
100.00	100.00	7	61	mm	100.00	293	58	
Frame#	Time	LTHI			LKNE			RELB			STRN			RWRA			LSHO			RFRM			RUPA			RSHO			RASI			RBHD			RFIN			LFHD			RFHD			CLAV			LHEE			RWRB			LASI			LBHD			LWRA			LTIB			RTHI			LWRB			LTOE			RKNE			C7			LFRM			LFIN			LUPA			LELB			RTIB			RTOE			RBAK			RANK			T10			LPSI			LANK			RHEE			RPSI			*39			*40			*41			*42			*43			*44			*45			*46			*47			*48			*49			*50			*51			*52			*53			*54			*55			*56			*57			*58			*59			*60			
		X1	Y1	Z1	X2	Y2	Z2	X3	Y3	Z3	X4	Y4	Z4	X5	Y5	Z5	X6	Y6	Z6	X7	Y7	Z7	X8	Y8	Z8	X9	Y9	Z9	X10	Y10	Z10	X11	Y11	Z11	X12	Y12	Z12	X13	Y13	Z13	X14	Y14	Z14	X15	Y15	Z15	X16	Y16	Z16	X17	Y17	Z17	X18	Y18	Z18	X19	Y19	Z19	X20	Y20	Z20	X21	Y21	Z21	X22	Y22	Z22	X23	Y23	Z23	X24	Y24	Z24	X25	Y25	Z25	X26	Y26	Z26	X27	Y27	Z27	X28	Y28	Z28	X29	Y29	Z29	X30	Y30	Z30	X31	Y31	Z31	X32	Y32	Z32	X33	Y33	Z33	X34	Y34	Z34	X35	Y35	Z35	X36	Y36	Z36	X37	Y37	Z37	X38	Y38	Z38	X39	Y39	Z39	X40	Y40	Z40	X41	Y41	Z41	X42	Y42	Z42	X43	Y43	Z43	X44	Y44	Z44	X45	Y45	Z45	X46	Y46	Z46	X47	Y47	Z47	X48	Y48	Z48	X49	Y49	Z49	X50	Y50	Z50	X51	Y51	Z51	X52	Y52	Z52	X53	Y53	Z53	X54	Y54	Z54	X55	Y55	Z55	X56	Y56	Z56	X57	Y57	Z57	X58	Y58	Z58	X59	Y59	Z59	X60	Y60	Z60	X61	Y61	Z61	

10	0.090	-539.08423	-901.73370	640.62506	-517.77008	-847.93988	523.34839	-113.99067	-1012.33911	1075.55481	-430.66513	-900.31409	1182.17920	-311.62802	-860.33783	1085.09705	-564.00012	-989.74884	1374.89478	-202.07156	-927.55261	1035.39172	-133.44800	-997.63586	1203.33374	-266.17209	-937.01874	1370.37915	-269.92871	-1013.03125	926.03595	-324.67242	-1016.81067	1592.86328	-347.01724	-792.08936	1059.49402	-456.79736	-935.30469	1656.70825	-347.07217	-914.44678	1662.06897	-422.53271	-912.12347	1343.57312	-400.34433	-799.87830	117.93847	-294.99130	-847.14294	1034.34229	-472.82974	-1001.88525	934.59570	-441.87039	-1038.25574	1591.43042	-708.22662	-1070.87073	975.74298	-521.23810	-827.97314	342.65469	-214.30992	-1159.35168	605.58691	-740.17853	-1117.38684	959.19354	-455.99628	-623.55121	76.54431	-236.97513	-1217.65576	451.36993	-394.69351	-1044.18103	1424.28748	-739.96265	-1166.46301	1074.95923	-743.19531	-1050.97803	901.95099	-668.14069	-1111.49719	1284.31702	-716.04297	-1214.11365	1186.35413	-235.92136	-1391.36487	407.10693	-296.98666	-1625.38403	177.73941	-294.38043	-1116.38501	1256.62268	-276.77386	-1581.32153	323.02542	-371.36896	-1137.04114	1158.62488	-438.33813	-1176.24146	972.30658	-460.35596	-767.21216	132.64996	-327.90555	-1611.17017	363.10577	-299.86743	-1173.65747	986.06635	-3102.08325	1973.08875	1023.50446	-3140.85864	2012.45117	1022.17731				-365.30820	-933.55444	1695.82507																																																						 
11	0.100	-542.24994	-860.48523	629.36487	-518.10449	-806.59833	515.22870	-109.04186	-980.98645	1079.15540	-430.12836	-854.48254	1178.12292	-304.01266	-824.42438	1065.29199	-567.54108	-944.14185	1368.79431	-193.06113	-896.80627	1027.19800	-132.53961	-963.11963	1206.33398	-267.93436	-893.82556	1368.13367	-271.67398	-964.49878	924.83331	-328.91809	-973.62531	1589.62769	-335.88461	-756.87970	1033.49585	-460.87851	-891.89789	1653.48779	-351.06778	-871.56134	1659.26514	-424.01083	-867.26270	1339.94897	-398.03287	-776.00494	108.09869	-283.93170	-814.52637	1014.83899	-474.47034	-956.48840	930.19196	-446.20044	-994.51868	1587.70068	-702.49335	-1007.20367	964.22040	-520.26257	-795.40314	331.99011	-212.45184	-1100.90735	600.00812	-734.95093	-1052.37732	944.55487	-453.34692	-602.61261	57.65532	-234.42317	-1154.32788	444.47791	-399.07300	-999.41162	1421.10474	-739.02637	-1106.39233	1057.63293	-735.22021	-983.27533	890.95367	-673.01471	-1062.69458	1270.31592	-719.42542	-1159.79785	1166.96814	-235.88313	-1328.93372	407.46817	-293.79776	-1569.96667	188.72667	-297.84283	-1072.79102	1255.31323	-278.14685	-1521.93835	332.87320	-374.90329	-1092.01331	1155.94775	-438.99316	-1130.27832	966.33032	-458.32104	-743.66016	120.47898	-331.09607	-1550.88135	373.31091	-300.15656	-1125.78528	981.81464	-3102.16113	1972.92358	1024.02905	-3140.90771	2012.48022	1022.21259				-369.64536	-890.66107	1693.63330																																																						 
12	0.110	-542.23328	-819.23187	623.40173	-517.54767	-765.58405	508.98575	-104.71575	-950.27136	1082.82837	-429.09299	-808.65710	1172.72900	-294.44415	-790.54541	1044.18103	-571.07001	-898.31470	1361.52124	-182.57126	-867.05750	1019.11676	-131.93294	-929.52722	1208.94873	-269.47415	-851.55298	1364.82825	-273.42371	-916.56335	922.82471	-333.04895	-930.60535	1585.17224	-321.40347	-724.67773	1006.43188	-465.00104	-848.62402	1649.26746	-355.03085	-828.83691	1655.27795	-425.00778	-822.54718	1334.73694	-396.33820	-758.69446	96.88537	-270.68481	-784.01422	994.53711	-477.08588	-911.05127	925.10846	-450.45569	-950.96204	1582.84753	-696.04181	-941.40881	952.62860	-519.25842	-764.78400	320.98395	-210.85010	-1041.68579	593.88013	-728.91534	-984.79675	929.52197	-449.23993	-588.07251	36.74983	-231.89772	-1089.07874	436.62988	-403.69498	-954.78235	1416.58044	-737.38635	-1044.56653	1039.30981	-726.23999	-913.05542	880.07220	-677.38379	-1013.02032	1254.92090	-722.55853	-1103.72974	1145.94006	-235.41754	-1264.34302	406.27509	-289.97577	-1508.95520	198.05141	-301.86203	-1029.35986	1252.68750	-279.23709	-1459.28333	341.13455	-378.72498	-1047.20361	1152.01099	-439.53372	-1084.82813	958.87219	-456.49792	-725.54260	107.13611	-333.71860	-1488.20947	381.23892	-300.09415	-1079.04504	976.21045	-3102.03076	1973.05408	1024.01892	-3140.78101	2012.50098	1022.07257				-374.04141	-848.04565	1690.15979																																																						 
13	0.120	-539.66370	-777.79376	618.49396	-517.11542	-726.24304	501.50275	-100.69199	-920.08862	1086.59827	-427.61340	-762.62872	1166.18616	-283.04791	-758.55103	1022.30017	-574.60547	-852.22351	1353.12378	-171.76775	-839.18005	1011.19592	-131.70805	-896.25409	1211.26404	-270.84225	-809.57465	1361.04980	-275.44287	-869.30481	919.64661	-337.13846	-887.60693	1579.64185	-303.82800	-694.27954	978.58337	-468.86624	-805.63202	1643.75403	-358.88272	-786.06543	1650.25024	-426.22330	-777.99561	1328.28101	-396.33972	-752.83569	79.36304	-255.52983	-755.87006	973.91052	-480.18280	-865.82745	919.50519	-454.58722	-907.51910	1576.90527	-688.79449	-873.71991	941.25214	-518.16797	-736.39423	309.23889	-209.68916	-981.20166	586.82990	-721.98004	-914.84601	914.42773	-448.62433	-565.51355	30.79440	-229.62610	-1021.48572	428.17276	-408.47513	-910.44586	1410.82605	-735.32306	-980.66992	1020.17780	-715.78510	-839.79443	870.50098	-681.06781	-962.65558	1238.28931	-725.25922	-1046.10181	1123.51904	-234.53107	-1197.04089	403.64114	-285.34302	-1443.63757	205.40521	-306.62558	-986.15259	1248.32056	-279.93982	-1393.79700	347.89297	-382.55667	-1002.38293	1146.58655	-439.90216	-1040.16895	950.51508	-451.58936	-713.64020	93.92010	-335.35599	-1422.87488	387.40173	-299.86935	-1033.05518	968.78131	-3101.98804	1973.13513	1023.54156	-3140.80591	2012.50195	1021.97180				-378.41525	-805.41034	1685.64551																																																						 
14	0.130	-538.99500	-735.20026	614.48145	-516.96088	-688.66846	490.78644	-97.41240	-889.88843	1090.09399	-425.92825	-716.52069	1158.88892	-269.84653	-728.47363	1000.24384	-578.15186	-805.56616	1343.78796	-160.44179	-812.17151	1003.77618	-132.24925	-863.31543	1213.27136	-271.94775	-767.61908	1356.67358	-278.21390	-822.80475	914.97437	-341.22543	-844.54504	1573.27319	-283.18857	-666.03705	951.13397	-472.83392	-762.57709	1637.72314	-362.65771	-743.45978	1644.55786	-427.09500	-732.16046	1320.63538	-394.53830	-753.07904	67.19093	-238.45274	-729.27649	953.96063	-481.77835	-822.76892	913.27106	-458.75912	-864.06799	1570.09534	-680.59094	-804.30054	930.44897	-515.74780	-709.28992	296.69666	-208.57199	-919.00250	579.09760	-714.27753	-842.69043	899.33508	-447.31155	-561.78717	30.27000	-228.11877	-951.20221	419.16577	-413.40256	-866.29797	1403.95239	-732.44281	-914.69818	1000.59692	-704.70264	-764.95508	861.76367	-684.03888	-911.38300	1220.56348	-727.46954	-986.61365	1099.92786	-233.18842	-1126.58728	399.37491	-279.92249	-1374.00073	210.82111	-312.14029	-942.99127	1241.86328	-279.86603	-1324.37866	352.20740	-386.16321	-957.84644	1139.52808	-440.39407	-996.43573	941.45416	-447.07956	-708.66272	82.17335	-336.11285	-1354.10437	391.49271	-299.31351	-988.31873	959.82147	-3102.02979	1973.18970	1023.50507	-3140.63184	2012.56982	1021.93317				-382.61392	-762.65814	1680.18665																																																						 
15	0.140	-539.48376	-693.03546	608.33252	-516.26379	-652.12097	478.47717	-94.95467	-859.74438	1093.38940	-424.06229	-670.60730	1151.34863	-254.88361	-700.00372	978.73969	-581.86926	-758.19391	1333.92627	-149.02985	-786.23749	997.10565	-133.57468	-829.99176	1215.10864	-273.22333	-725.59558	1351.75610	-281.02271	-777.79523	909.47485	-345.28894	-801.65259	1566.55225	-259.95847	-640.77148	925.03052	-476.81503	-719.57574	1631.73645	-366.31738	-701.12677	1638.88904	-427.82452	-686.72028	1312.69897	-390.19867	-755.61700	58.74068	-220.41502	-705.54016	934.57050	-483.77765	-779.69556	907.75775	-462.98505	-820.48584	1562.84521	-671.21515	-733.42255	920.65607	-513.14288	-684.98157	288.09442	-207.50859	-855.66669	570.35040	-704.99860	-768.38751	885.46680	-445.44238	-563.28815	30.13437	-227.45314	-878.07965	410.37024	-418.42502	-822.29700	1396.27917	-728.56866	-846.59424	980.87396	-692.09076	-688.48346	855.05707	-686.25842	-858.85364	1202.02246	-729.09607	-925.10443	1075.48206	-231.55585	-1052.66089	393.96109	-274.21555	-1300.03857	214.17877	-318.18207	-899.48187	1233.49011	-279.00479	-1251.84070	354.39069	-389.39447	-913.84698	1131.08777	-441.12250	-954.90021	932.17322	-442.89514	-712.45514	76.89723	-335.81976	-1281.85181	393.20715	-298.51273	-945.22986	949.36041	-3102.11475	1973.01221	1023.43958	-3140.72021	2012.53760	1022.02490				-386.87808	-720.26898	1673.73376																																																						 
16	0.150	-539.98065	-660.55939	595.97662	-513.38947	-617.62097	466.46576	-93.06651	-829.52466	1096.86572	-422.15875	-625.10449	1144.10156	-238.00024	-673.20837	958.76166	-585.62103	-710.15802	1324.25159	-137.67790	-760.79688	991.85309	-135.84879	-795.77582	1216.85645	-274.34378	-683.22546	1346.75244	-283.87671	-733.09839	902.59192	-349.41043	-758.72821	1559.94507	-235.28119	-618.14435	901.45416	-480.56873	-676.54785	1625.98450	-369.85471	-658.85828	1633.61206	-428.50983	-641.01489	1304.76013	-386.98776	-756.08301	51.56820	-200.50255	-683.08063	917.41437	-485.80472	-737.23279	902.77649	-467.18854	-776.65100	1555.57715	-660.28369	-660.95001	912.70563	-510.36313	-664.63641	281.88165	-207.65712	-790.72809	561.18256	-693.82684	-692.67316	873.63153	-444.89218	-563.27484	29.92938	-228.19319	-802.25769	402.83121	-423.40726	-778.39716	1388.86755	-723.15918	-776.44159	961.62842	-678.20947	-611.38947	850.68774	-687.86829	-804.87549	1182.82507	-729.67157	-861.20532	1050.76172	-230.25713	-975.85492	387.90659	-267.61700	-1220.21362	214.71475	-324.42490	-856.28656	1224.80884	-277.02966	-1174.71814	354.24426	-391.99954	-870.30115	1121.76257	-441.51007	-914.14996	922.18213	-439.45285	-712.09393	71.50561	-334.45691	-1207.72131	392.68726	-297.29166	-903.71936	937.48547	-3101.94385	1973.13098	1023.47595	-3140.70532	2012.44287	1022.11804				-390.97803	-678.12231	1666.92578																																																						 
